<?xml version="1.0" encoding="UTF-8"?>
<svg xmlns="http://www.w3.org/2000/svg" viewBox="0 0 461 316.25">
  <g fill="currentColor">
    <path d="M175.62,129.63c.35.11,1.59,3.73,3.73,10.86l8.92,27.23h.32l11.67-37.93.16-.16h4.38c.35,0,1.32,2.86,2.92,8.59l9.24,29.34h.16l12.32-37.77.16-.16h6.81l.32.32c-11.56,34.07-17.45,51.2-17.67,51.39l-.16.16h-3.89c-.35,0-1.22-2.54-2.59-7.62l-9.73-30.96h-.16l-11.67,38.42-.16.16h-4.05c-.41,0-1.54-3.13-3.4-9.4-6.92-20.02-11.67-34.12-14.27-42.31l.16-.16h6.48Z"/>
    <path d="M267.21,128.13c11.1,0,19.1,5.78,23.99,17.35,1.3,4.19,1.95,8.13,1.95,11.83l-.49.32h-45.88c-.22,0-.32.16-.32.49,0,4.73,2.38,9.43,7.13,14.1,3.73,2.92,7.83,4.38,12.32,4.38,7.92,0,13.86-3.84,17.83-11.51h7.13l.32.32v.16c-2.65,6.89-7.35,11.97-14.1,15.24-3.43,1.51-7.05,2.27-10.86,2.27-9.19,0-16.7-4.11-22.53-12.32-3.03-5-4.54-10.35-4.54-16.05,0-8.46,3.67-15.75,11.02-21.88,5-3.13,10.67-4.7,17.02-4.7ZM246.79,151.63l.16.16h38.1l.32-.32c-.24-2.97-1.92-6.54-5.03-10.7-3.7-4.21-8.46-6.32-14.27-6.32-8.94,0-15.1,4.43-18.48,13.29-.54,1.51-.81,2.81-.81,3.89Z"/>
    <path d="M331.08,110.17c12.08,0,21.64,5.03,28.69,15.08,4.21,6.51,6.32,13.21,6.32,20.1v1.46c0,9.81-4.27,18.72-12.81,26.75-6.59,5.3-14.21,7.94-22.86,7.94-9.83,0-18.32-3.67-25.45-11.02-6.27-7.7-9.4-15.64-9.4-23.83v-1.78c0-10.62,4.7-19.97,14.1-28.04,6.57-4.43,13.7-6.65,21.4-6.65ZM302.71,146c0,9.05,3.78,16.78,11.35,23.18,5.29,3.78,10.97,5.67,17.02,5.67,7.35,0,13.78-2.7,19.29-8.11,5.73-6.24,8.59-13.32,8.59-21.24,0-10.13-4.86-18.45-14.59-24.96-4.89-2.38-9.43-3.57-13.62-3.57-8.78,0-16.29,3.89-22.53,11.67-3.67,5.67-5.51,11.46-5.51,17.35Z"/>
    <path d="M391.87,128.49h.32c9.29,0,15.67,4.54,19.13,13.62.65,2.35.97,4.57.97,6.65v32.26l-.49.49h-5.84l-.49-.49v-31.94c0-5.32-2.16-9.43-6.48-12.32-2.78-1.19-5.38-1.78-7.78-1.78-8.24,0-13.37,4-15.4,12-.32,1.62-.49,3.57-.49,5.84v28.37l-.32.32h-6c-.32-.11-.49-.43-.49-.97v-49.61c.08-.65.24-.97.49-.97h6l.32.32v4.38l.32.32c4.67-4.32,10.08-6.48,16.21-6.48Z"/>
  </g>
  <path fill="#f5841f" d="M96.51,179.66c-.04,7,60.77-31.9,61.34-25.54.18,1.91.6,4.27,1.16,6.96.6,2.73,1.42,5.49,2.43,8.3,1.06,2.84,2.3,5.5,3.68,8.08,1.42,2.55,3.03,4.67,4.9,6.36,1.84,1.69,3.89,2.76,6.1,3.22,2.2.48,4.6-.04,7.22-1.43.7-.37,1.34-.44,1.87-.32.56.07.93.32,1.2.7.26.38.34.83.22,1.35-.08.53-.45,1.05-1.01,1.5-3.52,2.65-7.3,4.33-11.43,5.04-4.1.67-8.03.45-11.85-.71-3.82-1.15-7.26-3.21-10.33-6.12-3.07-2.92-5.28-6.7-6.81-11.26-1.65-4.94-63.58,34.38-64.22,26.66-.56-6.61-.72-13.53-.64-20.75.08-7.22.26-14.51.6-21.92-3.33.26-6.7.49-10.07.64-5.92.25-7.6,1.6-8.94,6.55-1.43,5.19-2.93,10.14-4.53,14.81-1.91,5.42-3.78,9.75-5.62,13.01-1.65,3.1-3.51,5.45-5.65,7.11-2.1,1.65-4.19,2.61-6.29,2.87-2.1.3-4.08-.11-5.92-1.23-1.87-1.1-3.41-2.85-4.57-5.27-.19-.42-.26-.83-.19-1.24.04-.42.19-.71.38-.94.19-.21.45-.33.71-.33.3,0,.6.18.86.52.97,1.39,2.06,2.1,3.26,2.1,1.16-.04,2.4-.5,3.63-1.46,1.23-.94,2.47-2.21,3.67-3.86,1.23-1.6,2.36-3.36,3.44-5.24,1.09-1.86,2.02-3.74,2.88-5.6.82-1.88,1.5-3.47,1.98-4.86,1.58-4.46,3.07-9.21,4.46-14.25,4.56-16.24,7.33-43.57,17.85-56.48,2.99-3.74,6.51-6.32,10.55-7.74,3.18-1.12,5.92-.82,8.2.86,1.87,1.46,3.3,3.78,4.3,6.96,1.02,3.21,1.65,7.63,1.99,13.28.26,4.75.34,9.98.23,15.67-.68,31.15-.86,7.74-1.05,44.02h0ZM71.43,155.5c3.26-.15,6.51-.34,9.77-.6.19-6.06.34-11.86.45-17.32.11-5.5.04-10.44-.26-14.85-.12-1.98-.26-3.85-.38-5.65-.15-1.8-.3-3.33-.52-4.64-.23-1.31-.53-2.35-.93-3.14-.38-.75-.94-1.12-1.68-1.01-1.13.07-2.25.89-3.3,2.47-5.65,8.42-9.17,25.77-11.15,35.72-2.36,11.67-3.41,9.5,8.01,9.01h0Z"/>
  <circle fill="#f5841f" cx="146.98" cy="141.15" r="10.38"/>
  <g fill="currentColor">
    <path d="M191.89,190.01c.07.04.72,1.7,1.96,4.98l3.52,9.06-.07.07h-1.39c-.12-.16-.54-1.23-1.26-3.22-.29-.78-.46-1.17-.53-1.2h-6.18c-.09.1-.54,1.28-1.36,3.55-.2.51-.34.8-.43.86h-1.26l-.07-.07,5.41-14.01.03-.03h1.63ZM191.03,191.47l-2.59,6.91.03.03h5.15l.07-.07-2.59-6.87h-.07Z"/>
    <path d="M197.97,190.01h1.23l.07.07v13.98l-.07.07h-1.23c-.07-.02-.1-.09-.1-.2v-13.71c.02-.13.05-.2.1-.2Z"/>
    <path d="M209.99,203.65c-.12.32-.24.47-.36.47h-.99c-.19,0-.25-.11-.17-.34l2.77-7.47h-5c-.17,0-.26-.11-.26-.33v-3.51c0-.13.02-.21.07-.25s.11-.06.21-.06h.83c.19,0,.29.1.29.31v2.58h5.28c.17,0,.25.12.25.36,0,.12-.01.23-.04.32l-2.89,7.9Z"/>
    <path d="M223.07,201.27c-.23,1.12-.69,1.91-1.35,2.36-.57.39-1.39.58-2.47.58h-.6c-.96,0-1.68-.2-2.17-.58-.53-.44-.88-1.15-1.05-2.13l-1-6.11c-.04-.22.03-.33.21-.33h.92c.2,0,.32.1.34.29l.75,5.13.34-.12c.62-.2,1-.71,1.12-1.55l.51-3.42c.05-.22.16-.33.34-.33h.9c.17,0,.24.1.2.31l-.6,3.46c-.17,1.01-.7,1.69-1.58,2.03l-1.1.44.05.38c.16.9.72,1.34,1.71,1.34h.85c1.24,0,1.96-.53,2.17-1.6l1.25-6.15c.03-.14.12-.21.27-.21h.96c.19,0,.26.11.21.33l-1.2,5.89Z"/>
    <path d="M237.47,203.8c0,.22-.09.33-.27.33h-.85c-.19,0-.29-.11-.29-.33v-6.36c0-.45-.18-.77-.53-.95-.36-.18-1.01-.27-1.96-.27-.41,0-.78.01-1.13.03-.34.02-.66.05-.94.1v7.45c0,.22-.1.33-.29.33h-.85c-.18,0-.27-.09-.27-.27v-8.2c0-.19.1-.3.29-.34.95-.22,2.11-.33,3.48-.33s2.28.19,2.81.56c.53.37.8,1,.8,1.89v6.36Z"/>
    <path d="M241.33,203.8c0,.22-.1.33-.29.33h-.85c-.18,0-.27-.11-.27-.33v-8.45c0-.19.1-.29.29-.29h.85c.18,0,.27.1.27.31v8.43Z"/>
    <path d="M249.93,199.6c0,1.78-.32,3-.96,3.68-.57.61-1.5.91-2.79.91-.46,0-.9-.02-1.31-.07s-.8-.11-1.17-.19c-.22-.06-.32-.16-.32-.33v-.61c0-.18.13-.25.4-.2.56.07,1.32.11,2.3.11.81,0,1.39-.1,1.74-.31.43-.25.65-.73.65-1.44v-3.15c0-.72-.27-1.22-.82-1.48-.38-.18-.97-.27-1.77-.27-.37,0-.73.01-1.07.03-.34.02-.68.05-1,.1-.29.05-.44-.01-.44-.19v-.59c0-.15.13-.27.38-.35.52-.18,1.33-.27,2.43-.27s1.99.19,2.53.57c.45.34.75.78.93,1.32.19.59.29,1.51.29,2.74Z"/>
    <path d="M259.3,203.8c0,.22-.09.33-.27.33h-.85c-.19,0-.28-.11-.28-.33v-6.36c0-.54-.2-.89-.59-1.05-.32-.11-1.04-.17-2.18-.17-.45,0-1.36.06-2.74.17-.31.03-.46-.03-.46-.19v-.65c0-.16.15-.28.45-.34.44-.08.91-.14,1.42-.18.51-.04,1.06-.06,1.65-.06,1.34,0,2.27.13,2.81.4.7.33,1.05.96,1.05,1.88v6.55ZM253.56,203.8c0,.22-.1.33-.29.33h-.85c-.18,0-.27-.11-.27-.33v-3.1c0-.52.12-1.04.36-1.56.07-.16.18-.24.31-.24h.53c.14,0,.21.1.21.29v4.61Z"/>
    <path d="M266.87,206.78c0,.35-.16.52-.47.52h-.29c-.3,0-.46-.17-.46-.52v-14.68c0-.31.15-.46.46-.46h.31c.3,0,.45.18.45.54v14.6Z"/>
    <path d="M274.66,203.8c0,.22-.1.33-.29.33h-.85c-.18,0-.27-.11-.27-.33v-8.45c0-.19.1-.29.29-.29h.85c.18,0,.27.1.27.31v8.43Z"/>
    <path d="M280.49,203.87c0,.17-.09.25-.27.25h-3.46c-.17,0-.26-.09-.26-.27v-.7c0-.19.09-.29.26-.29h2.34v-5.64c0-.67-.4-1.01-1.21-1.01-.23,0-.46.02-.71.06-.27.04-.4-.01-.4-.17v-.58c0-.17.08-.29.23-.34.27-.1.67-.15,1.18-.15.79,0,1.36.2,1.74.59.37.39.56,1.04.56,1.93v6.31Z"/>
    <path d="M286.36,203.65c-.12.32-.24.47-.36.47h-.99c-.19,0-.25-.11-.17-.34l2.77-7.47h-5c-.17,0-.26-.11-.26-.33v-3.51c0-.13.02-.21.07-.25s.11-.06.21-.06h.83c.19,0,.29.1.29.31v2.58h5.28c.17,0,.25.12.25.36,0,.12-.01.23-.04.32l-2.89,7.9Z"/>
    <path d="M299.43,201.27c-.23,1.12-.69,1.91-1.35,2.36-.57.39-1.39.58-2.47.58h-.6c-.96,0-1.68-.2-2.17-.58-.53-.44-.88-1.15-1.05-2.13l-1-6.11c-.04-.22.03-.33.21-.33h.92c.2,0,.32.1.34.29l.75,5.13.34-.12c.62-.2,1-.71,1.12-1.55l.51-3.42c.05-.22.16-.33.34-.33h.9c.17,0,.24.1.2.31l-.6,3.46c-.17,1.01-.7,1.69-1.58,2.03l-1.1.44.05.38c.16.9.72,1.34,1.71,1.34h.85c1.24,0,1.96-.53,2.17-1.6l1.25-6.15c.03-.14.12-.21.27-.21h.96c.19,0,.26.11.21.33l-1.2,5.89Z"/>
    <path d="M312.7,199.35c-.13.95-.38,1.72-.74,2.32-.16.28-.37.55-.64.82-.27.27-.58.54-.96.82-.21.15-.49.33-.84.51s-.77.4-1.27.64c-.4.19-.75.36-1.06.49-.31.14-.58.24-.81.33-.25.09-.4.14-.44.14-.07,0-.13-.05-.18-.14l-.19-.47c-.04-.08-.06-.15-.06-.2,0-.13.06-.22.19-.27,1.09-.39,1.87-.75,2.34-1.08l-.02-.06-2.18-7.77c-.07-.24,0-.36.22-.36h.92c.19,0,.3.09.35.27l1.32,5.11c.19.71.25,1.49.19,2.34l.06.06c.26-.14.58-.33.96-.58.43-.35.74-.71.95-1.06.23-.45.39-1.05.47-1.81l.46-4.04c.02-.19.12-.29.3-.29h.97c.15,0,.22.09.19.27l-.51,4.03Z"/>
    <path d="M321.95,195.89c0,.18-.09.28-.27.29l-1.12.11v7.5c0,.22-.09.33-.26.33h-.86c-.19,0-.28-.11-.28-.33v-7.5h-4.18c-.18,0-.27-.09-.27-.28v-.69c0-.18.09-.27.27-.27h6.74c.16,0,.23.08.23.23v.6Z"/>
    <path d="M325.31,199.9c0,.22-.09.33-.28.33h-.85c-.18,0-.27-.11-.27-.33v-4.55c0-.19.09-.29.27-.29h.87c.17,0,.26.1.26.31v4.54Z"/>
    <path d="M334.82,203.8c0,.22-.09.33-.27.33h-.85c-.19,0-.28-.11-.28-.33v-6.36c0-.54-.2-.89-.59-1.05-.32-.11-1.04-.17-2.18-.17-.45,0-1.36.06-2.74.17-.31.03-.46-.03-.46-.19v-.65c0-.16.15-.28.45-.34.44-.08.91-.14,1.42-.18.51-.04,1.06-.06,1.65-.06,1.34,0,2.27.13,2.81.4.7.33,1.05.96,1.05,1.88v6.55ZM329.09,203.8c0,.22-.1.33-.29.33h-.85c-.18,0-.27-.11-.27-.33v-3.1c0-.52.12-1.04.36-1.56.07-.16.18-.24.31-.24h.53c.14,0,.21.1.21.29v4.61Z"/>
    <path d="M342.4,206.78c0,.35-.16.52-.47.52h-.29c-.3,0-.46-.17-.46-.52v-14.68c0-.31.15-.46.46-.46h.31c.3,0,.45.18.45.54v14.6Z"/>
    <path d="M354.67,207.59c0,.22-.1.32-.29.32h-.84c-.19,0-.29-.11-.29-.32v-10.01c0-.51-.17-.86-.51-1.05-.35-.2-.96-.3-1.85-.3-.41,0-.81,0-1.2.02-.38.01-.76.04-1.13.07-.1,0-.19.01-.24.01-.06,0-.09,0-.1,0-.09-.02-.14-.09-.14-.2v-.54c0-.24.12-.37.34-.4.49-.07.98-.12,1.47-.15.5-.03.99-.05,1.49-.05,2.18,0,3.27.87,3.27,2.61v9.98Z"/>
    <path d="M360.53,203.65c-.12.32-.24.47-.36.47h-.99c-.19,0-.25-.11-.17-.34l2.77-7.47h-5c-.17,0-.26-.11-.26-.33v-3.51c0-.13.02-.21.07-.25s.11-.06.21-.06h.83c.19,0,.29.1.29.31v2.58h5.28c.17,0,.25.12.25.36,0,.12-.01.23-.04.32l-2.89,7.9Z"/>
    <path d="M373.6,201.27c-.23,1.12-.69,1.91-1.35,2.36-.57.39-1.39.58-2.47.58h-.6c-.96,0-1.68-.2-2.17-.58-.53-.44-.88-1.15-1.05-2.13l-1-6.11c-.04-.22.03-.33.21-.33h.92c.2,0,.32.1.34.29l.75,5.13.34-.12c.62-.2,1-.71,1.12-1.55l.51-3.42c.05-.22.16-.33.34-.33h.9c.17,0,.24.1.2.31l-.6,3.46c-.17,1.01-.7,1.69-1.58,2.03l-1.1.44.05.38c.16.9.72,1.34,1.71,1.34h.85c1.24,0,1.96-.53,2.17-1.6l1.25-6.15c.03-.14.12-.21.27-.21h.96c.19,0,.26.11.21.33l-1.2,5.89Z"/>
    <path d="M382.03,207.59c0,.22-.1.32-.29.32h-.85c-.18,0-.27-.11-.27-.32v-12.19c0-.23.09-.34.27-.34h.87c.18,0,.27.12.27.34v12.19Z"/>
    <path d="M385.9,203.8c0,.22-.1.33-.29.33h-.85c-.18,0-.27-.11-.27-.33v-8.45c0-.19.1-.29.29-.29h.85c.18,0,.27.1.27.31v8.43Z"/>
    <path d="M392.56,195.84c0,.17-.09.28-.27.31l-.82.13c-.52.09-.86.37-1.03.82-.11.32-.17.77-.17,1.37,0,.35.07.87.2,1.54l.71,3.78c.04.23-.02.34-.19.34h-.92c-.18,0-.28-.09-.31-.27l-.63-3.57c-.11-.63-.17-1.12-.17-1.48-.02-.88.27-1.72.87-2.51h-1.85c-.2,0-.31-.1-.31-.31v-.62c0-.2.1-.31.29-.31h4.29c.19,0,.29.1.29.31v.47Z"/>
    <path d="M401.83,203.8c0,.22-.09.33-.27.33h-.85c-.19,0-.29-.11-.29-.33v-6.36c0-.45-.18-.77-.53-.95-.36-.18-1.01-.27-1.96-.27-.41,0-.78.01-1.13.03-.34.02-.66.05-.94.1v7.45c0,.22-.1.33-.29.33h-.85c-.18,0-.27-.09-.27-.27v-8.2c0-.19.1-.3.29-.34.95-.22,2.11-.33,3.48-.33s2.28.19,2.81.56c.53.37.8,1,.8,1.89v6.36Z"/>
    <path d="M411.42,203.8c0,.22-.09.33-.27.33h-.85c-.19,0-.28-.11-.28-.33v-6.36c0-.54-.2-.89-.59-1.05-.32-.11-1.04-.17-2.18-.17-.45,0-1.36.06-2.74.17-.31.03-.46-.03-.46-.19v-.65c0-.16.15-.28.45-.34.44-.08.91-.14,1.42-.18.51-.04,1.06-.06,1.65-.06,1.34,0,2.27.13,2.81.4.7.33,1.05.96,1.05,1.88v6.55ZM405.68,203.8c0,.22-.1.33-.29.33h-.85c-.18,0-.27-.11-.27-.33v-3.1c0-.52.12-1.04.36-1.56.07-.16.18-.24.31-.24h.53c.14,0,.21.1.21.29v4.61Z"/>
  </g>
</svg>
